<svg width="26" height="32" viewBox="0 0 26 32" fill="none" xmlns="http://www.w3.org/2000/svg">
<path d="M5.95102 24.9429H25.0855C25.0809 26.3581 25.052 27.4127 24.9135 28.2451C24.7462 29.2388 24.4418 29.7638 23.9761 30.1381C23.509 30.5125 22.8546 30.7575 21.6174 30.8899C20.3437 31.0268 18.6561 31.0299 16.2365 31.0299H9.49518C7.07559 31.0299 5.38645 31.0284 4.11427 30.8899C2.87709 30.7575 2.22273 30.5125 1.75556 30.1381C1.2899 29.7638 0.985551 29.2388 0.818159 28.2466C0.805883 28.1702 0.794722 28.0936 0.78468 28.0168C0.72381 27.574 0.693375 27.3518 0.885116 26.8298C1.07838 26.3064 1.16055 26.2257 1.32794 26.0614C1.87149 25.5461 2.54918 25.1943 3.28339 25.0464C3.7247 24.952 4.30297 24.9429 5.95102 24.9429Z" fill="#97BD8D"/>
<path opacity="0.5" d="M1.84386 1.71029C2.30952 1.24159 2.96083 0.937242 4.19344 0.76985C5.46258 0.597892 7.14259 0.594849 9.55305 0.594849H16.27C18.6805 0.594849 20.3605 0.597892 21.6297 0.76985C22.8623 0.937242 23.5136 1.24159 23.9792 1.71029C24.4434 2.17899 24.7462 2.83639 24.9121 4.07966C25.0825 5.35793 25.0855 7.05468 25.0855 9.48491V24.9428H5.95106C4.30149 24.9428 3.72627 24.952 3.28344 25.0463C2.50278 25.2137 1.82256 25.5744 1.32799 26.0613C1.1606 26.2257 1.07842 26.3063 0.885159 26.8298C0.792924 27.052 0.742867 27.2893 0.737549 27.5298V9.48491C0.737549 7.05468 0.740592 5.35945 0.911028 4.07966C1.0769 2.83791 1.37973 2.17899 1.84386 1.71029Z" fill="#97BD8D"/>
<path d="M5.68323 8.20363C5.68323 7.90093 5.80347 7.61064 6.01751 7.3966C6.23155 7.18256 6.52185 7.06232 6.82454 7.06232H18.9985C19.3012 7.06232 19.5915 7.18256 19.8056 7.3966C20.0196 7.61064 20.1399 7.90093 20.1399 8.20363C20.1399 8.50632 20.0196 8.79662 19.8056 9.01066C19.5915 9.2247 19.3012 9.34494 18.9985 9.34494H6.82454C6.52185 9.34494 6.23155 9.2247 6.01751 9.01066C5.80347 8.79662 5.68323 8.50632 5.68323 8.20363ZM6.82454 12.3884C6.52185 12.3884 6.23155 12.5087 6.01751 12.7227C5.80347 12.9368 5.68323 13.2271 5.68323 13.5298C5.68323 13.8324 5.80347 14.1227 6.01751 14.3368C6.23155 14.5508 6.52185 14.6711 6.82454 14.6711H14.4333C14.736 14.6711 15.0263 14.5508 15.2403 14.3368C15.4544 14.1227 15.5746 13.8324 15.5746 13.5298C15.5746 13.2271 15.4544 12.9368 15.2403 12.7227C15.0263 12.5087 14.736 12.3884 14.4333 12.3884H6.82454Z" fill="#97BD8D"/>
</svg>
