<svg width="27" height="30" viewBox="0 0 27 30" fill="none" xmlns="http://www.w3.org/2000/svg">
<path opacity="0.5" d="M2.43516 27.1222C4.33615 29.2352 7.39676 29.2352 13.5151 29.2352C19.6349 29.2352 22.6941 29.2352 24.595 27.1222C26.496 25.012 26.496 21.611 26.496 14.8119C26.496 8.0128 26.496 4.61324 24.595 2.50024C22.6941 0.388672 19.6334 0.388672 13.5151 0.388672C7.39532 0.388672 4.33615 0.388672 2.43516 2.50024C0.53418 4.61468 0.53418 8.0128 0.53418 14.8119C0.53418 21.611 0.53418 25.0106 2.43516 27.1222Z" fill="#C7B7F5"/>
<path d="M9.54878 17.6966C9.54878 17.4097 9.43481 17.1345 9.23194 16.9316C9.02907 16.7288 8.75393 16.6148 8.46703 16.6148C8.18014 16.6148 7.90499 16.7288 7.70212 16.9316C7.49926 17.1345 7.38529 17.4097 7.38529 17.6966V18.7783H6.30355C6.01665 18.7783 5.7415 18.8923 5.53864 19.0951C5.33577 19.298 5.2218 19.5731 5.2218 19.86C5.2218 20.1469 5.33577 20.4221 5.53864 20.625C5.7415 20.8278 6.01665 20.9418 6.30355 20.9418H7.38529V22.0235C7.38529 22.3104 7.49926 22.5856 7.70212 22.7884C7.90499 22.9913 8.18014 23.1053 8.46703 23.1053C8.75393 23.1053 9.02907 22.9913 9.23194 22.7884C9.43481 22.5856 9.54878 22.3104 9.54878 22.0235V20.9418H10.6305C10.9174 20.9418 11.1926 20.8278 11.3954 20.625C11.5983 20.4221 11.7123 20.1469 11.7123 19.86C11.7123 19.5731 11.5983 19.298 11.3954 19.0951C11.1926 18.8923 10.9174 18.7783 10.6305 18.7783H9.54878V17.6966ZM19.7648 17.4557C19.7648 17.7743 19.6382 18.0799 19.4129 18.3052C19.1875 18.5306 18.882 18.6571 18.5633 18.6571C18.2447 18.6571 17.9391 18.5306 17.7137 18.3052C17.4884 18.0799 17.3618 17.7743 17.3618 17.4557C17.3618 17.137 17.4884 16.8314 17.7137 16.6061C17.9391 16.3808 18.2447 16.2542 18.5633 16.2542C18.882 16.2542 19.1875 16.3808 19.4129 16.6061C19.6382 16.8314 19.7648 17.137 19.7648 17.4557ZM19.7648 22.2644C19.7648 22.583 19.6382 22.8886 19.4129 23.114C19.1875 23.3393 18.882 23.4659 18.5633 23.4659C18.2447 23.4659 17.9391 23.3393 17.7137 23.114C17.4884 22.8886 17.3618 22.583 17.3618 22.2644C17.3618 21.9458 17.4884 21.6402 17.7137 21.4148C17.9391 21.1895 18.2447 21.0629 18.5633 21.0629C18.882 21.0629 19.1875 21.1895 19.4129 21.4148C19.6382 21.6402 19.7648 21.9458 19.7648 22.2644ZM16.159 21.0615C16.4776 21.0615 16.7832 20.9349 17.0085 20.7096C17.2338 20.4843 17.3604 20.1787 17.3604 19.86C17.3604 19.5414 17.2338 19.2358 17.0085 19.0105C16.7832 18.7852 16.4776 18.6586 16.159 18.6586C15.8403 18.6586 15.5347 18.7852 15.3094 19.0105C15.0841 19.2358 14.9575 19.5414 14.9575 19.86C14.9575 20.1787 15.0841 20.4843 15.3094 20.7096C15.5347 20.9349 15.8403 21.0615 16.159 21.0615ZM22.1691 19.86C22.1691 20.1789 22.0425 20.4847 21.817 20.7101C21.5916 20.9356 21.2858 21.0622 20.9669 21.0622C20.6481 21.0622 20.3423 20.9356 20.1169 20.7101C19.8914 20.4847 19.7648 20.1789 19.7648 19.86C19.7648 19.5412 19.8914 19.2354 20.1169 19.01C20.3423 18.7845 20.6481 18.6579 20.9669 18.6579C21.2858 18.6579 21.5916 18.7845 21.817 19.01C22.0425 19.2354 22.1691 19.5412 22.1691 19.86ZM6.3771 7.76182C6.30355 8.03587 6.30355 8.37193 6.30355 9.04261C6.30355 9.71329 6.30355 10.0479 6.3771 10.3234C6.47546 10.6899 6.6685 11.0242 6.93685 11.2925C7.20521 11.5609 7.53943 11.7539 7.90597 11.8523C8.18434 11.9273 8.51896 11.9273 9.1882 11.9273H17.8421C18.5128 11.9273 18.8474 11.9273 19.1229 11.8537C19.4895 11.7553 19.8237 11.5623 20.092 11.2939C20.3604 11.0256 20.5534 10.6914 20.6518 10.3248C20.7268 10.0465 20.7268 9.71185 20.7268 9.04261C20.7268 8.37337 20.7268 8.03731 20.6532 7.76182C20.5549 7.39528 20.3618 7.06106 20.0935 6.79271C19.8251 6.52436 19.4909 6.33132 19.1244 6.23296C18.8474 6.15796 18.5114 6.15796 17.8421 6.15796H9.1882C8.51751 6.15796 8.1829 6.15796 7.90741 6.23152C7.54087 6.32987 7.20665 6.52292 6.9383 6.79127C6.66994 7.05962 6.4769 7.39384 6.37855 7.76038L6.3771 7.76182Z" fill="#C7B7F5"/>
</svg>
