<svg width="25" height="32" viewBox="0 0 25 32" fill="none" xmlns="http://www.w3.org/2000/svg">
<path d="M12.3079 0.594849C8.10573 0.594849 4.69939 4.00119 4.69939 8.20338C4.69939 12.4056 8.10573 15.8119 12.3079 15.8119C16.5101 15.8119 19.9165 12.4056 19.9165 8.20338C19.9165 4.00119 16.5101 0.594849 12.3079 0.594849ZM3.3679 18.8553C2.51042 18.8553 1.68805 19.1959 1.08165 19.8022C0.475253 20.4084 0.134479 21.2307 0.134277 22.0882V22.6596C0.134277 25.5166 1.61185 27.6561 3.87767 29.0355C6.10697 30.3921 9.10169 31.029 12.3079 31.029C15.5142 31.029 18.5089 30.3921 20.7382 29.0355C23.004 27.6561 24.4816 25.5166 24.4816 22.6596V22.0882C24.4816 21.6636 24.3979 21.2431 24.2354 20.8508C24.0729 20.4586 23.8347 20.1021 23.5344 19.8019C23.2341 19.5017 22.8777 19.2636 22.4853 19.1012C22.093 18.9388 21.6726 18.8552 21.2479 18.8553H3.3679Z" fill="#FF9898" fill-opacity="0.5"/>
</svg>
